<?xml version="1.0" encoding="UTF-8"?>
<!DOCTYPE svg PUBLIC "-//W3C//DTD SVG 1.1//EN" "http://www.w3.org/Graphics/SVG/1.1/DTD/svg11.dtd">
<!-- Creator: CorelDRAW X8 -->
<svg xmlns="http://www.w3.org/2000/svg" xml:space="preserve" width="32.1717mm" height="32.1717mm" version="1.1" style="shape-rendering:geometricPrecision; text-rendering:geometricPrecision; image-rendering:optimizeQuality; fill-rule:evenodd; clip-rule:evenodd"
viewBox="0 0 120 120"
 xmlns:xlink="http://www.w3.org/1999/xlink">
 <defs>
  <style type="text/css">
   <![CDATA[
    .fil0 {fill:black}
   ]]>
  </style>
 </defs>
 <g id="Layer_x0020_1">
  <metadata id="CorelCorpID_0Corel-Layer"/>
  <g id="_607081520">
   <g>
    <g>
     <path class="fil0" d="M118 58c-2,0 -3,1 -3,2 0,31 -25,55 -55,55 -31,0 -56,-24 -56,-55 0,-31 25,-55 56,-55 15,0 29,5 39,16l-5 0c-1,0 -2,1 -2,2 0,1 1,2 2,2l11 1c0,0 0,0 1,0l0 -1c0,0 0,0 1,-1 0,0 0,0 0,0 0,0 0,0 0,0l1 -11c0,-1 -1,-2 -2,-2 -2,-1 -3,0 -3,2l0 5c-24,-24 -61,-24 -85,-1 -24,23 -24,61 -1,85 23,24 61,24 85,1 11,-12 18,-27 18,-43 0,-1 -1,-2 -2,-2z"/>
    </g>
   </g>
   <g>
    <g>
     <path class="fil0" d="M58 74c-1,-1 -3,-1 -4,-1l-16 0c0,-1 1,-2 1,-2 2,-2 4,-4 7,-6 3,-3 5,-4 6,-6 2,-1 3,-3 4,-5 1,-2 2,-4 2,-6 0,-4 -1,-7 -3,-9 -1,-1 -3,-2 -4,-3 -3,-1 -5,-1 -8,-1 -2,0 -5,0 -7,1 -2,1 -3,2 -5,3 -1,1 -2,2 -2,4 -1,1 -1,3 -1,4 0,1 0,2 1,3 0,1 1,1 2,1 1,0 2,0 3,-1 0,-1 1,-2 1,-3 1,-1 1,-2 1,-3 2,-2 4,-3 7,-3 1,0 2,0 3,1 1,0 2,1 3,2 0,1 1,2 1,4 0,1 -1,2 -1,3 -1,2 -2,3 -3,4 -1,1 -2,3 -4,4 -2,1 -3,2 -5,4 -2,2 -4,4 -7,7 -1,1 -1,2 -2,3 0,1 -1,2 -1,3 0,1 1,2 2,3 1,1 2,1 3,1l23 0c1,0 2,0 3,-1 0,-1 1,-2 1,-3 0,-1 -1,-2 -1,-2z"/>
    </g>
   </g>
   <g>
    <g>
     <path class="fil0" d="M96 64c-1,0 -3,-1 -4,-1l-1 0 0 -23c0,-4 -2,-6 -5,-6 -1,0 -2,1 -2,1 -1,1 -2,2 -3,4l-16 21 -1 2c-1,0 -1,1 -1,1 0,0 -1,1 -1,1 0,1 0,1 0,1 0,2 0,3 1,4 2,1 3,1 5,1l15 0 0 6c0,1 1,3 1,4 2,1 4,1 6,0 0,0 0,0 0,0 1,-1 1,-3 1,-4l0 -6 2 0c1,0 2,0 3,0 1,-1 1,-2 1,-3 1,-1 0,-2 -1,-3zm-13 -1l-13 0 13 -17 0 17z"/>
    </g>
   </g>
   <g>
   </g>
   <g>
   </g>
   <g>
   </g>
   <g>
   </g>
   <g>
   </g>
   <g>
   </g>
   <g>
   </g>
   <g>
   </g>
   <g>
   </g>
   <g>
   </g>
   <g>
   </g>
   <g>
   </g>
   <g>
   </g>
   <g>
   </g>
   <g>
   </g>
  </g>
 </g>
</svg>
